<?xml version="1.0" encoding="UTF-8" standalone="no"?>
<svg xmlns:dc="http://purl.org/dc/elements/1.1/" xmlns:cc="http://creativecommons.org/ns#" xmlns:rdf="http://www.w3.org/1999/02/22-rdf-syntax-ns#" xmlns:svg="http://www.w3.org/2000/svg" xmlns="http://www.w3.org/2000/svg" xmlns:sodipodi="http://sodipodi.sourceforge.net/DTD/sodipodi-0.dtd" xmlns:inkscape="http://www.inkscape.org/namespaces/inkscape" width="18" height="18" viewBox="0 0 18 18" version="1.1" id="svg896" sodipodi:docname="remember.svg" inkscape:version="0.92.3 (2405546, 2018-03-11)">
  <metadata id="metadata900">
    <rdf:RDF>
      <cc:Work rdf:about="">
        <dc:format>image/svg+xml</dc:format>
        <dc:type rdf:resource="http://purl.org/dc/dcmitype/StillImage" />
        <dc:title></dc:title>
      </cc:Work>
    </rdf:RDF>
  </metadata>
  <sodipodi:namedview pagecolor="#ffffff" bordercolor="#666666" borderopacity="1" objecttolerance="10" gridtolerance="10" guidetolerance="10" inkscape:pageopacity="0" inkscape:pageshadow="2" inkscape:window-width="1920" inkscape:window-height="1137" id="namedview898" showgrid="false" inkscape:zoom="37.083822" inkscape:cx="7.4132939" inkscape:cy="6.6743397" inkscape:window-x="-8" inkscape:window-y="-8" inkscape:window-maximized="1" inkscape:current-layer="svg896" />
  <defs id="defs892">
    <style id="style890">
      .cls-1 {
        fill: #b8b29e;
        fill-rule: evenodd;
      }
    </style>
  </defs>
  <path class="cls-1" d="m 15.378268,16.813 h -5.149 c 0,0.031 0,0.062 0,0.093 a 1.0940001,1.0940001 0 1 1 -2.1880001,0 c 0,-0.031 0,-0.062 0,-0.092 h -5.09 a 2.008,2.008 0 0 1 -1.951,-2.04 2.041,2.041 0 0 1 1.731,-2.011 l 0.465,-5.5830001 a 5.913,5.913 0 0 1 5.387,-5.889 0.769,0.769 0 1 1 1.167,0 5.914,5.914 0 0 1 5.3320001,5.885 l 0.465,5.5840001 a 2.039,2.039 0 0 1 -0.169,4.053 z M 9.6682679,0.79299993 a 0.5,0.5 0 1 0 -0.653,0.47499997 h 0.094 0.06 c 0.05,0 0.1,0 0.15,0 a 0.5,0.5 0 0 0 0.349,-0.47499997 z" id="path894" style="fill:#f6bd16;fill-rule:evenodd" inkscape:connector-curvature="0" />
  <path d="m 10.274474,12.777088 a 1.1372371,1.1372372 0 1 1 -2.2744738,0 1.1372371,1.1372372 0 1 1 2.2744738,0 z" id="path1995" style="fill:#000000;fill-opacity:1;stroke:none;stroke-width:0.01914182;stroke-linecap:square;stroke-miterlimit:4;stroke-dasharray:none;stroke-dashoffset:0;stroke-opacity:0.4" inkscape:connector-curvature="0" />
  <path d="m 9.1372361,4.7928486 c -0.6196809,0 -1.1184799,0.5093999 -1.1184799,1.1421736 l 0.330707,4.0010623 c 0.06316,0.5175525 0.117104,0.8107845 0.330707,0.9486845 0.139471,0.06354 0.293963,0.09971 0.4570659,0.09971 0.162318,0 0.316147,-0.03575 0.455093,-0.09872 0.2147989,-0.137511 0.269379,-0.430962 0.332682,-0.9496715 L 10.255718,5.9350222 c 0,-0.6327737 -0.4987999,-1.1421736 -1.1184819,-1.1421736 z" id="rect1997" style="fill:#000000;fill-opacity:1;stroke:#000000;stroke-width:0.02658588;stroke-linecap:square;stroke-miterlimit:4;stroke-dashoffset:0;stroke-opacity:1" inkscape:connector-curvature="0" />
</svg>
